<?xml version="1.0" encoding="UTF-8" standalone="no"?>
<!-- Created with Inkscape (http://www.inkscape.org/) -->

<svg
   width="80mm"
   height="100mm"
   viewBox="0 0 80 100"
   version="1.1"
   id="svg1"
   inkscape:version="1.3.2 (091e20e, 2023-11-25, custom)"
   xml:space="preserve"
   sodipodi:docname="LabCraft_logo.svg"
   xmlns:inkscape="http://www.inkscape.org/namespaces/inkscape"
   xmlns:sodipodi="http://sodipodi.sourceforge.net/DTD/sodipodi-0.dtd"
   xmlns:xlink="http://www.w3.org/1999/xlink"
   xmlns="http://www.w3.org/2000/svg"
   xmlns:svg="http://www.w3.org/2000/svg"><sodipodi:namedview
     id="namedview1"
     pagecolor="#ffffff"
     bordercolor="#000000"
     borderopacity="0.25"
     inkscape:showpageshadow="2"
     inkscape:pageopacity="0.0"
     inkscape:pagecheckerboard="0"
     inkscape:deskcolor="#d1d1d1"
     inkscape:document-units="mm"
     inkscape:zoom="1"
     inkscape:cx="176.5"
     inkscape:cy="158.5"
     inkscape:window-width="1920"
     inkscape:window-height="1009"
     inkscape:window-x="-8"
     inkscape:window-y="-8"
     inkscape:window-maximized="1"
     inkscape:current-layer="layer1" /><defs
     id="defs1"><linearGradient
       id="linearGradient290"
       inkscape:collect="always"><stop
         style="stop-color:#000000;stop-opacity:1;"
         offset="0"
         id="stop290" /><stop
         style="stop-color:#000000;stop-opacity:0.74901961;"
         offset="0.76322931"
         id="stop293" /><stop
         style="stop-color:#000000;stop-opacity:0.24102564;"
         offset="1"
         id="stop292" /></linearGradient><style
       id="style1">.cls-1{fill:#fff;}.cls-2{fill:url(#linear-gradient);}.cls-3{fill:url(#linear-gradient-2);}.cls-4{fill:url(#linear-gradient-3);}.cls-5{fill:url(#linear-gradient-4);}</style><linearGradient
       id="linear-gradient"
       x1="9.35"
       y1="215"
       x2="313.54"
       y2="215"
       gradientUnits="userSpaceOnUse"><stop
         offset="0"
         stop-color="#57def7"
         id="stop1" /><stop
         offset="1"
         stop-color="#0075f6"
         id="stop2" /></linearGradient><linearGradient
       id="linear-gradient-2"
       x1="9.35"
       y1="305.36"
       x2="313.54"
       y2="305.36"
       xlink:href="#linear-gradient" /><linearGradient
       id="linear-gradient-3"
       x1="9.35"
       y1="165.6"
       x2="313.54"
       y2="165.6"
       xlink:href="#linear-gradient" /><linearGradient
       id="linear-gradient-4"
       x1="9.35"
       y1="246.52"
       x2="313.54"
       y2="246.52"
       xlink:href="#linear-gradient" /><linearGradient
       inkscape:collect="always"
       xlink:href="#linear-gradient"
       id="linearGradient1-2"
       gradientUnits="userSpaceOnUse"
       x1="9.3500004"
       y1="215"
       x2="313.54001"
       y2="215"
       gradientTransform="matrix(0.06972877,0,0,0.06972877,113.32125,25.134619)" /><linearGradient
       id="linear-gradient-2-1"
       x1="9.3500004"
       y1="305.35999"
       x2="313.54001"
       y2="305.35999"
       xlink:href="#linear-gradient"
       gradientTransform="matrix(0.06972877,0,0,0.06972877,113.32125,25.134619)" /><linearGradient
       id="linear-gradient-3-2"
       x1="9.3500004"
       y1="165.60001"
       x2="313.54001"
       y2="165.60001"
       xlink:href="#linear-gradient"
       gradientTransform="matrix(0.06972877,0,0,0.06972877,113.32125,25.134619)" /><linearGradient
       id="linear-gradient-4-0"
       x1="9.3500004"
       y1="246.52"
       x2="313.54001"
       y2="246.52"
       xlink:href="#linear-gradient"
       gradientTransform="matrix(0.06972877,0,0,0.06972877,113.32125,25.134619)" /><radialGradient
       inkscape:collect="always"
       xlink:href="#linearGradient290"
       id="radialGradient291"
       cx="39.997605"
       cy="50.040057"
       fx="39.997605"
       fy="50.040057"
       r="39.955364"
       gradientTransform="matrix(1.003311,0,0,1.2514072,-1.3985944e-4,-12.580431)"
       gradientUnits="userSpaceOnUse" /></defs><g
     inkscape:label="Layer 1"
     inkscape:groupmode="layer"
     id="layer1"><rect
       style="display:inline;vector-effect:non-scaling-stroke;fill:url(#radialGradient291);stroke:none;stroke-width:0.264582;stroke-opacity:1;-inkscape-stroke:hairline"
       id="rect2"
       width="80.175316"
       height="100.00086"
       x="0.042241018"
       y="0.039626162" /></g><g
     inkscape:groupmode="layer"
     id="layer2"
     inkscape:label="Layer 2"><g
       id="g5"
       transform="matrix(0.86167478,0,0,0.86167478,-111.66384,37.692851)"
       style="stroke-width:1.16053"><polygon
         class="cls-1"
         points="390.83,145.66 390.83,324.62 517.64,324.62 517.64,296.5 424.07,296.5 424.07,145.66 "
         id="polygon2-0"
         style="fill:#ffffff;stroke-width:4.40359"
         transform="matrix(0.06972877,0,0,0.06972877,113.32125,25.134619)" /><path
         class="cls-1"
         d="m 154.33571,38.125786 a 7.8946913,7.8946913 0 0 0 -2.19297,0.302623 5.6215334,5.6215334 0 0 0 -1.83596,0.891831 l 0.87301,1.621891 a 4.1028408,4.1028408 0 0 1 1.31927,-0.697288 4.9932772,4.9932772 0 0 1 1.55076,-0.249629 q 1.21259,0 1.80947,0.543885 0.59687,0.543884 0.59757,1.524271 v 0.139457 h -2.47816 q -1.44338,0 -2.31778,0.374444 -0.8744,0.374443 -1.25512,1.016645 a 2.7549837,2.7549837 0 0 0 -0.38281,1.443386 2.5743862,2.5743862 0 0 0 0.4365,1.47058 2.8846792,2.8846792 0 0 0 1.23908,1.016645 q 0.80188,0.365379 1.87152,0.365379 1.28301,0 2.10372,-0.463697 a 2.5506784,2.5506784 0 0 0 0.88974,-0.815129 v 1.1568 h 2.10371 v -5.578301 q 0,-2.067458 -1.12333,-3.068066 -1.12333,-1.000608 -3.20822,-0.995727 z m 1.16726,7.772666 a 2.9007168,2.9007168 0 0 1 -1.47058,0.373746 q -0.85557,0 -1.3374,-0.356314 a 1.1156603,1.1156603 0 0 1 -0.48112,-0.944825 1.1916647,1.1916647 0 0 1 0.40094,-0.918327 q 0.40163,-0.365379 1.52427,-0.365379 h 2.31778 v 1.105201 a 2.2117966,2.2117966 0 0 1 -0.95389,1.105898 z"
         id="path2-2"
         style="fill:#ffffff;stroke-width:0.307057" /><path
         class="cls-1"
         d="m 167.78988,38.731729 q -1.08638,-0.605943 -2.47746,-0.605943 a 4.2938977,4.2938977 0 0 0 -2.12185,0.525755 3.4641253,3.4641253 0 0 0 -0.9267,0.756557 v -4.865673 h -2.2104 v 13.227547 h 2.12115 v -1.216069 a 3.346981,3.346981 0 0 0 0.98039,0.815129 4.425685,4.425685 0 0 0 2.15741,0.525755 q 1.38969,0 2.47746,-0.605943 a 4.4751925,4.4751925 0 0 0 1.7209,-1.702777 q 0.63175,-1.096136 0.63244,-2.575781 0,-1.464304 -0.63244,-2.567413 a 4.4626413,4.4626413 0 0 0 -1.7209,-1.711144 z m -0.28519,5.857217 a 2.6406285,2.6406285 0 0 1 -1.00689,1.052207 3.0185585,3.0185585 0 0 1 -2.8791,0 2.6155262,2.6155262 0 0 1 -1.01594,-1.052207 3.2375068,3.2375068 0 0 1 -0.37445,-1.577265 q 0,-0.906474 0.37445,-1.577962 a 2.6496933,2.6496933 0 0 1 1.01594,-1.03338 3.0129802,3.0129802 0 0 1 2.8791,0 2.6727038,2.6727038 0 0 1 1.00689,1.03338 q 0.37444,0.668699 0.37444,1.577962 a 3.2375068,3.2375068 0 0 1 -0.37444,1.577265 z"
         id="path3-6"
         style="fill:#ffffff;stroke-width:0.307057" /><path
         class="cls-1"
         d="m 174.82203,38.375415 a 4.1607157,4.1607157 0 0 1 1.40852,-0.906474 4.82802,4.82802 0 0 1 1.79133,-0.320752 4.4563657,4.4563657 0 0 1 1.8004,0.365379 4.7227296,4.7227296 0 0 1 1.53403,1.096136 l 1.49638,-1.412008 a 5.5315833,5.5315833 0 0 0 -2.13858,-1.559832 7.7001481,7.7001481 0 0 0 -5.45489,-0.05369 6.3662367,6.3662367 0 0 0 -2.12184,1.345766 6.1800609,6.1800609 0 0 0 -1.40783,2.032593 6.4150468,6.4150468 0 0 0 -0.49925,2.566716 6.4108631,6.4108631 0 0 0 0.49925,2.571597 6.2490924,6.2490924 0 0 0 3.51085,3.374873 7.2643433,7.2643433 0 0 0 2.65597,0.472064 q 1.55076,0 2.81704,-0.534123 a 5.6319928,5.6319928 0 0 0 2.13928,-1.569594 l -1.49708,-1.408521 a 4.6020988,4.6020988 0 0 1 -1.53403,1.11566 4.4563657,4.4563657 0 0 1 -1.7997,0.362589 4.82802,4.82802 0 0 1 -1.79133,-0.320752 4.171175,4.171175 0 0 1 -1.40852,-0.906474 4.253455,4.253455 0 0 1 -0.93576,-1.390392 4.7645669,4.7645669 0 0 1 0,-3.52967 4.2457848,4.2457848 0 0 1 0.93576,-1.391089 z"
         id="path4-6"
         style="fill:#ffffff;stroke-width:0.307057" /><path
         class="cls-1"
         d="m 186.20037,39.634019 v -1.383418 h -2.12185 v 9.519371 h 2.2111 v -4.602099 q 0,-1.497773 0.74889,-2.23132 0.74888,-0.733547 2.03189,-0.730758 c 0.0697,0 0.14852,0 0.2315,0.0091 0.083,0.0091 0.16665,0.01464 0.24963,0.0265 v -2.115571 q -1.3367,0 -2.2634,0.508323 a 2.9564998,2.9564998 0 0 0 -1.08776,0.99991 z"
         id="path5-1"
         style="fill:#ffffff;stroke-width:0.307057" /><path
         class="cls-1"
         d="m 194.06159,38.125786 a 7.9023615,7.9023615 0 0 0 -2.19297,0.302623 5.6354792,5.6354792 0 0 0 -1.83596,0.891831 l 0.8737,1.621891 a 4.1028408,4.1028408 0 0 1 1.31927,-0.697288 4.9897908,4.9897908 0 0 1 1.55077,-0.249629 q 1.21258,0 1.81294,0.543885 0.60037,0.543884 0.59688,1.524271 v 0.139457 h -2.47746 q -1.44408,0 -2.31778,0.374444 -0.87371,0.374443 -1.25512,1.016645 a 2.7549837,2.7549837 0 0 0 -0.38351,1.443386 2.5743862,2.5743862 0 0 0 0.4372,1.47058 2.8825874,2.8825874 0 0 0 1.23838,1.016645 q 0.80258,0.365379 1.87222,0.365379 1.28301,0 2.10302,-0.463697 a 2.5464947,2.5464947 0 0 0 0.88695,-0.815129 v 1.1568 h 2.10023 v -5.578301 q 0,-2.067458 -1.12263,-3.068066 -1.12264,-1.000608 -3.20613,-0.995727 z m 1.16795,7.772666 a 2.9042033,2.9042033 0 0 1 -1.47058,0.373746 q -0.85626,0 -1.33739,-0.356314 a 1.1156603,1.1156603 0 0 1 -0.48113,-0.944825 1.1895728,1.1895728 0 0 1 0.40094,-0.918327 q 0.40164,-0.365379 1.52427,-0.365379 h 2.31709 v 1.105201 a 2.2138884,2.2138884 0 0 1 -0.9532,1.105898 z"
         id="path6-3"
         style="fill:#ffffff;stroke-width:0.307057" /><path
         class="cls-1"
         d="m 202.63613,36.601515 q 0.35632,-0.380022 1.05361,-0.380022 a 2.057696,2.057696 0 0 1 0.65893,0.107383 2.1811159,2.1811159 0 0 1 0.55295,0.267061 l 0.62756,-1.657453 a 2.3665945,2.3665945 0 0 0 -0.88277,-0.392573 4.8224417,4.8224417 0 0 0 -1.11566,-0.124814 q -1.64141,0 -2.52278,0.900198 -0.88137,0.900198 -0.88277,2.415405 v 0.58851 h -1.5682 v 1.782965 h 1.5682 v 7.661797 h 2.2111 v -7.665283 h 1.54728 v -1.782965 h -1.60376 v -0.588511 q 0,-0.744703 0.35631,-1.131698 z"
         id="path7-2"
         style="fill:#ffffff;stroke-width:0.307057" /><path
         class="cls-1"
         d="m 210.80207,45.666255 q -0.48113,0.392573 -1.21258,0.391876 -0.64081,0 -0.99782,-0.373746 c -0.23847,-0.249629 -0.35632,-0.600365 -0.35632,-1.052207 v -4.527489 h 2.56672 v -1.782965 h -2.56672 v -2.17484 h -2.21109 v 2.17484 h -1.35832 v 1.782965 h 1.35692 v 4.602098 q 0,1.568898 0.85557,2.379843 0.85557,0.810946 2.42447,0.810946 a 4.268098,4.268098 0 0 0 1.15889,-0.160376 2.8093721,2.8093721 0 0 0 0.98039,-0.481826 z"
         id="path8-4"
         style="fill:#ffffff;stroke-width:0.307057" /></g><g
       id="g4"
       transform="matrix(1.7174349,0,0,1.7174349,-175.7424,-28.926783)"
       style="stroke-width:0.582264"><path
         class="cls-2"
         d="m 125.61931,26.483173 -8.71609,10.37355 -0.17642,0.242656 a 10.615508,10.615508 0 0 0 -1.541,3.544313 10.989254,10.989254 0 0 0 -0.27404,2.420983 c 0,5.90254 4.80153,10.704761 10.70476,10.704761 5.90324,0 10.70686,-4.802221 10.70686,-10.704761 a 10.662226,10.662226 0 0 0 -1.81295,-5.962507 z m 0,25.296204 a 8.7237664,8.7237664 0 0 1 -8.71609,-8.716097 8.8325433,8.8325433 0 0 1 0.22592,-1.97681 8.5013316,8.5013316 0 0 1 1.24256,-2.863064 l 0.0844,-0.119236 7.16114,-8.525736 7.26923,8.670772 a 8.7160963,8.7160963 0 0 1 -7.26923,13.527381 z"
         id="path9-4"
         style="fill:url(#linearGradient1-2);stroke-width:0.154058" /><path
         class="cls-3"
         d="m 120.55212,44.483655 h 5.06719 v -1.986572 h -7.21832 v 0.994332 0.172927 c 0.27892,3.756289 3.44879,6.698843 7.21832,6.698843 v -1.992848 a 5.2749815,5.2749815 0 0 1 -5.06719,-3.886682 z"
         id="path10-6"
         style="fill:url(#linear-gradient-2-1);stroke-width:0.154058" /><path
         class="cls-4"
         d="m 126.90581,33.491612 -1.3123,-1.523574 -1.20979,1.4399 -3.20055,3.808585 c -0.88137,1.045932 -1.83178,2.052118 -2.39449,3.319089 -0.0411,0.09274 -0.31099,0.86394 -0.36049,0.86394 h 7.19322 v -1.991454 h -3.68517 z"
         id="path11-1"
         style="fill:url(#linear-gradient-3-2);stroke-width:0.154058" /><path
         class="cls-5"
         d="m 131.70594,39.202398 -0.0356,-0.05299 -3.99267,-4.764566 -0.0697,-0.07949 -1.29975,1.545189 3.75629,4.479377 a 5.179453,5.179453 0 0 1 0.55783,1.209096 l 0.0153,0.04881 c 0.0907,0.243353 0.32494,1.08986 0.22802,1.757165 l -0.009,0.08646 a 5.2882299,5.2882299 0 0 1 -3.59033,4.671828 l -0.42465,0.134576 -0.20919,0.05997 v 2.042356 c 0.0886,-0.0084 0.19245,-0.02162 0.27194,-0.03765 v 0 c 0.24127,-0.04393 0.44697,-0.101106 0.53064,-0.125512 l 0.4881,-0.16177 c 2.67061,-0.963652 4.72692,-3.528276 4.91239,-6.428993 0.16387,-1.209097 -0.24056,-2.42935 -0.32493,-2.661547 a 7.135345,7.135345 0 0 0 -0.80467,-1.722301 z"
         id="path12-7"
         style="fill:url(#linear-gradient-4-0);stroke-width:0.154058" /></g><text
       xml:space="preserve"
       style="font-style:normal;font-variant:normal;font-weight:600;font-stretch:normal;font-size:5.64444px;font-family:Inter;-inkscape-font-specification:'Inter, Semi-Bold';font-variant-ligatures:normal;font-variant-caps:normal;font-variant-numeric:normal;font-variant-east-asian:normal;opacity:1;vector-effect:non-scaling-stroke;fill:#ffffff;fill-opacity:1;stroke:#000000;stroke-width:0.264583;stroke-opacity:1;-inkscape-stroke:hairline"
       x="23.412928"
       y="87.556931"
       id="text5"><tspan
         sodipodi:role="line"
         id="tspan5"
         style="font-style:normal;font-variant:normal;font-weight:600;font-stretch:normal;font-size:5.64444px;font-family:Inter;-inkscape-font-specification:'Inter, Semi-Bold';font-variant-ligatures:normal;font-variant-caps:normal;font-variant-numeric:normal;font-variant-east-asian:normal;fill:#ffffff;stroke:none;stroke-width:0.264583"
         x="23.412928"
         y="87.556931">Initializing...</tspan></text></g></svg>
